<svg width="400" height="120" viewBox="0 0 400 120" fill="none" xmlns="http://www.w3.org/2000/svg">
<path fill-rule="evenodd" clip-rule="evenodd" d="M247.396 35.5165C249.964 35.5165 251.638 37.0317 251.638 39.27H251.599V67.0937C251.599 70.4339 250.782 72.3967 247.396 74.1873L227.433 84.7934C227.161 84.9311 226.966 85 226.771 85C226.538 85 226.304 84.8623 226.304 84.2424V51.77C226.304 51.4256 226.188 51.1501 225.915 51.1501C225.766 51.1501 225.64 51.2107 225.484 51.2854C225.437 51.3083 225.386 51.3325 225.332 51.3568L170.54 82.8306C169.022 83.6915 167.738 83.9669 166.337 83.9669H130.03C127.462 83.9669 125.788 82.4518 125.788 80.2135V40.1308C125.788 39.8554 125.672 39.5799 125.399 39.5799C125.205 39.5799 125.049 39.6488 124.816 39.7865L88.7419 59.0358C88.3917 59.2424 88.2749 59.4146 88.2749 59.5523C88.2749 59.6901 88.3138 59.7934 88.5862 60.0344L114.387 82.865C114.737 83.1749 114.97 83.416 114.97 83.657C114.97 83.8981 114.581 84.0358 114.153 84.0358H90.8044C88.9754 84.0358 87.5356 83.7603 86.5627 82.8994L70.9191 69.0565C70.7634 68.9187 70.6078 68.8499 70.4521 68.8499C70.3354 68.8499 69.9852 68.9876 69.9852 68.9876L43.7957 82.8994C42.2002 83.7259 41.1106 84.0014 39.5541 84.0014H15.466C12.8977 84.0014 11.2244 82.4862 11.2244 80.2479V52.9408C11.2244 49.5661 12.0805 47.6377 15.466 45.8471L35.5848 35.1722C35.7794 35.0344 35.9739 35 36.1296 35C36.4409 35 36.5966 35.2755 36.5966 35.8953V72.3967C36.5966 72.7755 36.7133 72.9477 36.9857 72.9477C37.1414 72.9477 37.3359 72.8788 37.5694 72.7411L105.475 36.6529C107.071 35.7576 108.082 35.5165 109.95 35.5165H146.491C149.059 35.5165 150.733 37.0317 150.733 39.27V79.3182C150.733 79.697 150.849 79.938 151.122 79.938C151.316 79.938 151.472 79.8692 151.705 79.7314L226.616 36.6873C227.939 35.9298 229.145 35.5165 230.935 35.5165H247.396ZM333.013 70.8216V69.8918C333.013 64.0378 328.732 60.1466 322.545 58.7003C326.981 56.9786 330.717 53.6728 330.717 48.7141V48.0943C330.717 40.8629 324.179 35.7665 314.412 35.7665H292.814V84.0447H315.424C325.347 84.0447 333.013 79.2238 333.013 70.8216ZM302.582 55.6356V42.688H311.688C316.669 42.688 320.599 44.4786 320.599 48.8519V49.5406C320.599 53.845 316.63 55.6356 311.688 55.6356H302.582ZM312.777 62.5571C317.875 62.5571 322.701 64.3477 322.701 69.6163V70.0295C322.701 75.367 317.875 77.0888 312.777 77.0888H302.582V62.5571H312.777ZM340.212 44.0642V35.3865H349.473V44.0986H340.212V44.0642ZM340.212 84.0091V49.3328H349.473V84.0091H340.212ZM357.722 78.91V84.0409L357.761 84.0753H388.775V77.6704H369.318L388.775 54.2888V49.399H358.617V55.804H376.906L357.722 78.91Z" fill="white"/>
</svg>
